<?xml version="1.0" encoding="UTF-8"?>
<svg xmlns="http://www.w3.org/2000/svg" version="1.1" width="200" height="200" viewBox="0 0 200 200"><rect x="0" y="0" width="200" height="200" fill="#ffffff"/><g transform="scale(9.524)"><g transform="translate(0,0)"><path fill-rule="evenodd" d="M8 0L8 1L10 1L10 0ZM12 0L12 1L11 1L11 2L10 2L10 3L9 3L9 2L8 2L8 5L9 5L9 4L10 4L10 7L11 7L11 8L10 8L10 11L9 11L9 12L10 12L10 11L11 11L11 10L12 10L12 9L11 9L11 8L13 8L13 9L14 9L14 10L16 10L16 9L17 9L17 12L18 12L18 13L19 13L19 12L20 12L20 11L21 11L21 10L20 10L20 9L21 9L21 8L20 8L20 9L19 9L19 8L16 8L16 9L14 9L14 8L13 8L13 6L12 6L12 7L11 7L11 5L12 5L12 4L13 4L13 3L12 3L12 4L10 4L10 3L11 3L11 2L12 2L12 1L13 1L13 0ZM8 6L8 7L9 7L9 6ZM0 8L0 12L2 12L2 11L3 11L3 10L4 10L4 11L7 11L7 10L6 10L6 9L7 9L7 8L6 8L6 9L5 9L5 10L4 10L4 8ZM8 8L8 10L9 10L9 8ZM1 9L1 10L3 10L3 9ZM18 9L18 10L19 10L19 11L20 11L20 10L19 10L19 9ZM12 11L12 13L11 13L11 14L13 14L13 15L12 15L12 16L11 16L11 15L10 15L10 14L9 14L9 13L8 13L8 12L5 12L5 13L8 13L8 14L9 14L9 15L10 15L10 16L9 16L9 17L8 17L8 21L9 21L9 17L12 17L12 16L13 16L13 15L14 15L14 14L15 14L15 15L16 15L16 16L14 16L14 17L16 17L16 18L13 18L13 20L12 20L12 19L11 19L11 18L10 18L10 19L11 19L11 20L12 20L12 21L14 21L14 19L16 19L16 18L17 18L17 19L18 19L18 20L19 20L19 21L20 21L20 20L19 20L19 18L20 18L20 16L19 16L19 15L20 15L20 14L21 14L21 13L20 13L20 14L19 14L19 15L18 15L18 16L19 16L19 18L18 18L18 17L17 17L17 13L16 13L16 12L15 12L15 11L14 11L14 14L13 14L13 11ZM15 13L15 14L16 14L16 13ZM16 20L16 21L17 21L17 20ZM0 0L0 7L7 7L7 0ZM1 1L1 6L6 6L6 1ZM2 2L2 5L5 5L5 2ZM14 0L14 7L21 7L21 0ZM15 1L15 6L20 6L20 1ZM16 2L16 5L19 5L19 2ZM0 14L0 21L7 21L7 14ZM1 15L1 20L6 20L6 15ZM2 16L2 19L5 19L5 16Z" fill="#000000"/></g></g></svg>
